<?xml version="1.0" standalone="no"?>
<!DOCTYPE svg PUBLIC "-//W3C//DTD SVG 20010904//EN"
 "http://www.w3.org/TR/2001/REC-SVG-20010904/DTD/svg10.dtd">
<svg version="1.0" xmlns="http://www.w3.org/2000/svg"
 viewBox="0 0 2600.000000 2600.000000"
 preserveAspectRatio="xMidYMid meet">
<metadata>
Created by potrace 1.15, written by Peter Selinger 2001-2017
</metadata>
<g transform="translate(0.000000,2600.000000) scale(0.100000,-0.100000)"
fill="#000000" stroke="none">
<path d="M8945 23154 c-16 -2 -73 -9 -125 -15 -303 -34 -590 -118 -848 -248
-280 -141 -527 -320 -1082 -781 -239 -198 -461 -366 -770 -580 -921 -640
-1216 -866 -1543 -1180 -212 -203 -361 -432 -440 -675 -78 -239 -146 -527
-232 -970 -176 -911 -281 -1295 -661 -2410 -384 -1129 -474 -1424 -559 -1836
-94 -456 -143 -853 -215 -1754 -17 -209 -55 -630 -85 -935 -69 -698 -82 -868
-96 -1222 -21 -550 6 -885 166 -2056 127 -931 165 -1324 180 -1857 7 -258 26
-422 66 -586 83 -342 235 -617 473 -855 183 -182 364 -301 596 -389 224 -85
339 -104 725 -115 458 -14 526 -31 1006 -253 112 -52 325 -147 474 -212 148
-65 495 -219 770 -343 1497 -673 1948 -854 2590 -1041 39 -11 181 -48 315 -80
819 -201 1757 -323 2920 -381 1522 -76 2251 -11 2848 254 98 43 99 43 274 55
378 25 675 82 1274 245 379 102 497 120 937 141 384 18 456 25 737 71 1111
182 2019 532 2704 1043 750 558 1247 1306 1475 2220 102 410 144 773 145 1246
0 455 -40 850 -130 1295 -73 361 -214 820 -326 1065 -292 640 -831 1176 -1538
1530 -697 349 -1544 523 -2364 485 -814 -38 -1370 -143 -1861 -352 -196 -84
-569 -274 -749 -383 -209 -126 -630 -402 -729 -477 -76 -58 -187 -163 -187
-177 0 -3 21 -17 47 -31 83 -44 275 -174 383 -259 217 -172 481 -464 609 -674
59 -96 138 -257 176 -356 62 -164 115 -413 115 -536 l-1 -50 -87 170 c-103
201 -234 419 -338 565 -606 850 -1553 1376 -2738 1520 -902 109 -1782 -4
-2555 -329 -273 -115 -374 -180 -726 -462 -252 -202 -372 -287 -495 -349 -186
-93 -426 -152 -630 -153 -185 -1 -286 34 -399 139 -104 96 -204 271 -314 549
-97 244 -154 453 -277 1000 -122 544 -168 714 -262 965 -87 234 -217 485 -316
610 -19 25 -126 135 -237 245 -273 271 -335 363 -371 551 -22 117 -22 372 1
644 37 442 21 649 -110 1345 -105 560 -124 701 -132 985 -6 240 6 386 52 615
82 401 275 896 500 1278 l46 78 67 -6 c37 -3 193 -10 347 -15 456 -17 640 2
1058 106 378 94 703 211 942 338 161 86 214 119 366 232 181 134 241 164 330
164 86 0 138 -27 251 -128 108 -98 158 -124 385 -201 151 -51 198 -63 271 -68
162 -10 310 41 475 165 331 249 496 468 498 657 1 33 -11 123 -26 200 -20 99
-28 174 -29 255 l-1 115 57 106 c75 138 91 207 92 379 1 250 -75 463 -250 696
-228 305 -533 546 -1244 984 -372 229 -562 321 -819 395 -205 59 -338 77 -591
80 -124 2 -238 1 -255 -1z m1024 -1171 c51 -153 71 -274 71 -440 0 -164 12
-269 35 -313 29 -57 156 -100 292 -101 162 -1 212 52 283 297 17 59 35 114 39
122 5 9 7 -50 4 -134 -10 -259 26 -356 145 -390 65 -19 126 -15 287 23 171 39
271 53 383 53 99 0 102 -1 92 -19 -21 -39 -129 -80 -306 -116 -93 -19 -186
-41 -206 -49 -44 -19 -88 -69 -88 -102 0 -13 -2 -24 -4 -24 -2 0 -36 18 -76
40 -39 23 -127 66 -196 97 -123 54 -128 55 -252 63 -134 9 -146 12 -257 56
-64 25 -84 28 -228 32 -162 4 -182 11 -104 38 18 6 37 21 44 35 42 87 64 377
44 582 -10 105 -43 318 -57 372 -12 49 28 -41 55 -122z"/>
</g>
</svg>
