<svg xmlns="http://www.w3.org/2000/svg" width="27.5" height="20" viewBox="0 0 27.5 20">

  <g id="Iconly_Bold_3-User" transform="translate(18 -10)">
    <g id="_3-User" transform="translate(-18 10)">
      <path id="_3-Friends" class="cls-1" d="M13.686,13.175c4.289,0,7.951.68,7.951,3.4S18,20,13.686,20c-4.289,0-7.951-.68-7.951-3.4S9.374,13.175,13.686,13.175Zm6.858-1.638a19.442,19.442,0,0,1,4.054.355,3.447,3.447,0,0,1,2.664,1.63,2.4,2.4,0,0,1,0,2.087c-.575,1.248-2.43,1.649-3.151,1.753a.226.226,0,0,1-.253-.257c.368-3.459-2.561-5.1-3.319-5.477a.056.056,0,0,1-.036-.059A.047.047,0,0,1,20.544,11.536Zm-13.9,0,.309,0A.046.046,0,0,1,7,11.568a.058.058,0,0,1-.035.06C6.2,12,3.274,13.645,3.642,17.1a.227.227,0,0,1-.252.258c-.721-.1-2.575-.5-3.151-1.753a2.4,2.4,0,0,1,0-2.087A3.448,3.448,0,0,1,2.9,11.89a19.552,19.552,0,0,1,4.055-.353ZM13.686,0a5.257,5.257,0,0,1,5.262,5.291,5.262,5.262,0,1,1-10.523,0A5.257,5.257,0,0,1,13.686,0Zm7.143.882A4.47,4.47,0,0,1,25.11,6.525,4.392,4.392,0,0,1,20.7,9.8a4.246,4.246,0,0,1-.6-.059.2.2,0,0,1-.133-.305,7.3,7.3,0,0,0-.105-8.265.129.129,0,0,1-.02-.137.162.162,0,0,1,.1-.062A4.383,4.383,0,0,1,20.829.882ZM6.67.882a4.4,4.4,0,0,1,.886.091.17.17,0,0,1,.1.062.131.131,0,0,1-.02.137,7.3,7.3,0,0,0-.105,8.265.2.2,0,0,1-.133.305,4.1,4.1,0,0,1-.6.059A4.392,4.392,0,0,1,2.39,6.525,4.469,4.469,0,0,1,6.67.882Z" transform="translate(0 0)"/>
    </g>
  </g>
</svg>
