<svg xmlns="http://www.w3.org/2000/svg" width="27.5" height="20" viewBox="0 0 27.5 20">
  <defs>
    <style>
      .cls-1 {
        fill: #fff;
        fill-rule: evenodd;
      }
    </style>
  </defs>
  <g id="Iconly_Light-Outline_3-User" transform="translate(-1 -4)">
    <g id="_3-User" transform="translate(1 4)">
      <path id="Combined-Shape" class="cls-1" d="M13.751,12.4h.462c2.438.015,8.011.247,8.011,3.81,0,3.539-5.378,3.769-7.973,3.784h-.961c-2.439-.015-8.012-.247-8.012-3.8s5.574-3.774,8.012-3.789h.462Zm0,1.787c-3,0-6.579.348-6.579,2,0,1.618,3.365,2,6.305,2.018h.274c3,0,6.578-.347,6.578-2C20.329,14.543,16.752,14.192,13.751,14.192ZM23.8,11.922c3.06.432,3.7,1.788,3.7,2.849a2.633,2.633,0,0,1-2.076,2.48,1.01,1.01,0,0,1-.337.058.949.949,0,0,1-.885-.575.878.878,0,0,1,.548-1.153c.856-.307.856-.647.856-.81,0-.522-.7-.886-2.09-1.082a.9.9,0,0,1-.8-1.017A.947.947,0,0,1,23.8,11.922Zm-19.015.75a.9.9,0,0,1-.8,1.017c-1.387.2-2.09.56-2.09,1.082,0,.163,0,.5.858.81A.878.878,0,0,1,3.3,16.734a.949.949,0,0,1-.885.575,1.01,1.01,0,0,1-.337-.058A2.635,2.635,0,0,1,0,14.771c0-1.06.643-2.417,3.7-2.849A.947.947,0,0,1,4.782,12.672ZM13.751,0a5.62,5.62,0,0,1,5.771,5.442,5.62,5.62,0,0,1-5.771,5.442h-.034a5.887,5.887,0,0,1-4.066-1.6,5.23,5.23,0,0,1-1.67-3.843A5.619,5.619,0,0,1,13.751,0Zm0,1.787A3.774,3.774,0,0,0,9.876,5.442a3.51,3.51,0,0,0,1.119,2.58A3.954,3.954,0,0,0,13.719,9.1l.032.893V9.1a3.775,3.775,0,0,0,3.876-3.656A3.776,3.776,0,0,0,13.751,1.787Zm7.817-.62A4.384,4.384,0,0,1,25.4,5.426,4.431,4.431,0,0,1,21.461,9.7a.986.986,0,0,1-.131.008.932.932,0,0,1-.937-.769A.9.9,0,0,1,21.2,7.926a2.594,2.594,0,0,0,2.308-2.5A2.569,2.569,0,0,0,21.26,2.93.9.9,0,0,1,20.479,1.9.943.943,0,0,1,21.568,1.167ZM7.022,1.9A.9.9,0,0,1,6.242,2.93a2.569,2.569,0,0,0-2.247,2.5A2.593,2.593,0,0,0,6.3,7.926a.9.9,0,0,1,.807,1.009.932.932,0,0,1-.937.769A.986.986,0,0,1,6.04,9.7,4.429,4.429,0,0,1,2.1,5.429,4.385,4.385,0,0,1,5.934,1.167.937.937,0,0,1,7.022,1.9Z" transform="translate(0 0)"/>
    </g>
  </g>
</svg>
