<svg xmlns="http://www.w3.org/2000/svg" width="764.478" height="296.148" viewBox="0 0 764.478 296.148">
  <defs>
    <style>
      .cls-1 {
        fill: #0abab4;
      }

      .cls-2 {
        fill: #fff;
      }

      .cls-3, .cls-4, .cls-5, .cls-6 {
        fill: none;
      }

      .cls-3, .cls-4, .cls-5 {
        stroke: #fff;
        stroke-linecap: round;
        stroke-linejoin: round;
        stroke-miterlimit: 10;
      }

      .cls-3 {
        stroke-width: 2.725px;
      }

      .cls-4 {
        stroke-width: 1.813px;
      }

      .cls-5 {
        stroke-width: 2.044px;
      }
    </style>
  </defs>
  <g id="FITscoop2" transform="translate(-84.72 -316.5)">
    <path id="Path_1175" class="cls-1" d="M196.594,341.111H138.351V369h46.034v23.242H138.351v48.677H108.09V316.5h88.5v24.611Z" transform="translate(1.637)"/>
    <path id="Path_1176" class="cls-2" d="M251.68,348.6h13.665V325.06H251.68ZM349,325.071V348.58h13.611V325.071Zm-21.38-8.571v37.9h14.414V316.5Zm-55.354,0v37.9h14.414V316.5Z" transform="translate(11.696)"/>
    <path id="Path_1177" class="cls-1" d="M251.584,316.5V440.915H222.511V316.5Zm82.03,0V440.915H304.081V316.5ZM190.292,482.187a66.577,66.577,0,0,0-14.713-7.523,94.938,94.938,0,0,0-15.045-4.152,75.113,75.113,0,0,0-13.59-1.348q-15.28,0-24.365,6.067-9.1,6.067-9.1,16.618,0,9.213,4.826,14.82a36.184,36.184,0,0,0,12.691,9.2,130.932,130.932,0,0,0,17.292,6.4q9.438,2.809,18.865,6.067a80.712,80.712,0,0,1,17.292,8.3,38.8,38.8,0,0,1,12.573,13.023q4.719,7.977,4.719,20.32a36.414,36.414,0,0,1-7.191,22.568q-7.191,9.55-19.989,14.82t-29.651,5.275a84.077,84.077,0,0,1-22.46-3.028,92.745,92.745,0,0,1-20.663-8.421A86.335,86.335,0,0,1,84.72,588.85l8.09-14.6a82.855,82.855,0,0,0,16.169,11.9,84.478,84.478,0,0,0,18.084,7.64,64.9,64.9,0,0,0,18.084,2.7q17.062,0,26.955-6.966a21.891,21.891,0,0,0,9.887-18.865q0-9.213-4.719-15.045a34.01,34.01,0,0,0-12.573-9.427A122.506,122.506,0,0,0,147.4,539.9q-9.565-2.735-18.983-5.95a85.878,85.878,0,0,1-17.41-8.09,37.062,37.062,0,0,1-12.573-12.691q-4.719-7.865-4.719-19.989a34.563,34.563,0,0,1,6.741-21.337q6.741-8.988,19.09-14.039t28.528-5.051a90.7,90.7,0,0,1,26.837,4.045,94.31,94.31,0,0,1,23.017,10.337l-7.64,15.056Zm162.156,5.5A65.659,65.659,0,0,0,331.229,473.2a63.585,63.585,0,0,0-70.634,13.483,64.89,64.89,0,0,0-13.7,20.545,64.527,64.527,0,0,0,13.7,70.527,65.217,65.217,0,0,0,20.438,13.814,62.038,62.038,0,0,0,24.932,5.051A63.955,63.955,0,0,0,331,591.568a70.393,70.393,0,0,0,21.444-14.039l11,11.225a87.79,87.79,0,0,1-17.185,12.573,90.187,90.187,0,0,1-19.882,8.314,78.1,78.1,0,0,1-21.337,2.921A80.746,80.746,0,0,1,247.433,589.2a80.308,80.308,0,0,1-17.41-25.606,78,78,0,0,1-6.292-31.213,76.408,76.408,0,0,1,6.292-30.989A80.627,80.627,0,0,1,273.6,458.946a86.4,86.4,0,0,1,53.225-3.371,85.043,85.043,0,0,1,19.539,7.747A82.079,82.079,0,0,1,363.2,475.564l-10.754,12.124Zm107.583-34.809a84.258,84.258,0,0,1,32.005,6.067A80.173,80.173,0,0,1,518.2,476.013a81.81,81.81,0,0,1,17.635,25.382,75.289,75.289,0,0,1,6.4,30.989,76.957,76.957,0,0,1-6.4,31.214,81.213,81.213,0,0,1-43.8,42.791,86.622,86.622,0,0,1-64.235,0A81.213,81.213,0,0,1,384,563.6a79.067,79.067,0,0,1,0-62.32,80.422,80.422,0,0,1,43.8-42.342,84.771,84.771,0,0,1,32.23-6.057Zm0,15.27a62.423,62.423,0,0,0-24.815,4.944,64.41,64.41,0,0,0-20.438,13.814,65.635,65.635,0,0,0-13.921,20.556,64.619,64.619,0,0,0,0,50.089A65.913,65.913,0,0,0,414.9,578.214a64.606,64.606,0,0,0,20.545,13.921,62.933,62.933,0,0,0,69.736-13.921,66.326,66.326,0,0,0,13.7-20.663,65.909,65.909,0,0,0,0-50.089,65.3,65.3,0,0,0-13.7-20.556,63.3,63.3,0,0,0-20.331-13.814,62.5,62.5,0,0,0-24.815-4.944Z"/>
    <path id="Path_1178" class="cls-2" d="M687.94,524.57c.877-.214,1.081.086,1.295-.128,1.07-1.091-3.8-9.277-11.332-14.917a36.408,36.408,0,0,0-6.452-3.863c-2.044-5.233-3.157-5.735-11.674-9.523-2.472-1.1-5.554-2.472-9.62-4.355-11.1-5.158-19.668-12.177-26.559-17.816-4.195-3.435-7.811-6.4-11.182-8.293-5.029-2.825-9.6-3.232-13.322-1.348-5.511,2.8-17.838,16.329-26.013,23.413-9.074,7.854-15.719,8.924-26.623,15.152a69.655,69.655,0,0,0-14.339,9.737c-3.553,3.157-8.55,7.587-7.469,10.273.728,1.819,3.617,1.231,13.793,2.515a123.893,123.893,0,0,1,19.978,4.195c8.475,2.793,9.042,4.055,15.409,5.821,10.059,2.793,18.266,1.263,24.5.364,20.064-2.878,79.131-7.715,85.7-9.331.214-.053.353-.1.353-.1C686.164,525.854,686.581,524.9,687.94,524.57Zm-93.095-6.046a2.707,2.707,0,1,1,2.707-2.707A2.7,2.7,0,0,1,594.845,518.524Zm8.015-8.4a2.408,2.408,0,1,1,2.408-2.408A2.4,2.4,0,0,1,602.86,510.124Zm5.436,13.2a3.007,3.007,0,1,1,3.007-3.007A3.009,3.009,0,0,1,608.3,523.328Zm16.147-23.809c-7.565-8.293-12.2-20.684-16.49-28.4a10.5,10.5,0,0,1,1.1.546c2.846,1.594,6.249,4.387,10.2,7.619,7.191,5.885,16.136,13.2,28.014,18.726,4.12,1.915,7.223,3.3,9.727,4.409,3.67,1.626,5.875,2.611,6.784,3.317.439.332.567.589,1.295,2.472,1.241,3.2,5.19,5.179,9.77,7.458a59.144,59.144,0,0,1,6.549,3.692.556.556,0,0,1-.235,1.006,50.63,50.63,0,0,1-9.994.128c-11.7-.749-31.567-4.355-46.719-20.973Zm-56.638,40.459a3.448,3.448,0,1,1-1.01-2.446A3.462,3.462,0,0,1,567.805,539.978Zm-12.295-5.425a3.05,3.05,0,1,1-3.05-3.05A3.055,3.055,0,0,1,555.51,534.553Zm-13.793,7a2.75,2.75,0,1,1-2.75-2.75A2.75,2.75,0,0,1,541.717,541.551Zm128.032-2.836a2.836,2.836,0,1,1-2.836-2.836A2.841,2.841,0,0,1,669.749,538.716Z" transform="translate(30.809 10.275)"/>
    <path id="Path_1179" class="cls-1" d="M607.268,523.556a807.808,807.808,0,0,1-82.758-5.136c1.616,44.632,38.747,80.2,82.758,80.051,43.112-.15,79.537-34.531,82.095-78.189A813.812,813.812,0,0,1,607.268,523.556Z" transform="translate(30.81 14.146)"/>
    <path id="Path_1180" class="cls-2" d="M614.368,580.534a1.688,1.688,0,0,1-.578-1.241,1.711,1.711,0,0,1,1.669-1.755c8.9-.235,18.544-5.275,25.788-13.483s11.054-18.394,10.187-27.265a1.715,1.715,0,0,1,3.413-.332c.952,9.8-3.167,20.962-11.022,29.855s-18.426,14.371-28.271,14.638a1.606,1.606,0,0,1-1.188-.417Z" transform="translate(37.064 15.304)"/>
    <path id="Path_1181" class="cls-3" d="M615.226,579.022l-2.236-9.909m29.384-32.786,10.219-.107m-19.807,20.995,9.2,8.036" transform="translate(37.008 15.393)"/>
    <path id="Path_1182" class="cls-4" d="M624.14,566.73l1.348,3.831.931,2.664" transform="translate(37.789 17.53)"/>
    <path id="Path_1183" class="cls-5" d="M640.97,548.45l4.569,1.38,3.167.952" transform="translate(38.968 16.249)"/>
    <circle id="Ellipse_381" class="cls-2" cx="3.531" cy="3.531" r="3.531" transform="translate(689.836 458.454)"/>
    <circle id="Ellipse_382" class="cls-2" cx="3.531" cy="3.531" r="3.531" transform="translate(688.798 471.444)"/>
    <circle id="Ellipse_383" class="cls-2" cx="3.531" cy="3.531" r="3.531" transform="translate(702.099 454.056)"/>
    <circle id="Ellipse_384" class="cls-2" cx="3.531" cy="3.531" r="3.531" transform="translate(677.573 462.851)"/>
    <circle id="Ellipse_385" class="cls-2" cx="3.531" cy="3.531" r="3.531" transform="translate(701.061 467.035)"/>
    <circle id="Ellipse_386" class="cls-2" cx="3.531" cy="3.531" r="3.531" transform="translate(700.023 480.026)"/>
    <circle id="Ellipse_387" class="cls-2" cx="1.338" cy="1.338" r="1.338" transform="translate(595.436 483.707)"/>
    <circle id="Ellipse_388" class="cls-2" cx="3.574" cy="3.574" r="3.574" transform="translate(572.462 493.519)"/>
    <circle id="Ellipse_389" class="cls-2" cx="2.664" cy="2.664" r="2.664" transform="translate(581.547 482.562)"/>
    <path id="Path_1184" class="cls-1" d="M803.406,509.734a9.5,9.5,0,0,0-2.836-13.13L726.994,449.19,716.7,465.155l73.577,47.414A9.493,9.493,0,0,0,803.406,509.734Z" transform="translate(44.274 9.296)"/>
    <path id="Path_1185" class="cls-6" d="M742.3,390.381a29.471,29.471,0,0,0-1.958-18.266,31.934,31.934,0,0,0-12.177-14.028,31.482,31.482,0,0,0-17.581-5.147,28.741,28.741,0,0,0-16.96,5.372q-7.448,5.329-17.934,21.6l-18.3,28.4,54.5,35.119,17.849-26.987Q740.362,399.964,742.3,390.381Z" transform="translate(40.119 2.553)"/>
    <path id="Path_1186" class="cls-1" d="M736.708,443.414q19.277-29.919,23.7-42.535,6.035-17.287,1.1-32.519t-20.995-25.585Q724.579,332.5,708.4,334.45a49.018,49.018,0,0,0-28.421,13.526q-8.587,8.058-26.334,35.579L633.03,415.55,718.763,470.8l10.561-15.912,7.383-11.471ZM659.1,409.633l18.3-28.4q10.481-16.276,17.934-21.6a28.667,28.667,0,0,1,16.96-5.372A31.482,31.482,0,0,1,729.87,359.4a32,32,0,0,1,12.177,14.028,29.463,29.463,0,0,1,1.958,18.266q-1.926,9.582-12.552,26.067l-17.849,26.987L659.1,409.633Zm142.168,91.618-58.19-37.495a9.549,9.549,0,0,0-10.347,16.051l58.19,37.495a9.549,9.549,0,1,0,10.347-16.051Z" transform="translate(38.412 1.236)"/>
  </g>
</svg>
