<?xml version="1.0" encoding="utf-8"?>
<!-- Generator: Adobe Illustrator 25.4.1, SVG Export Plug-In . SVG Version: 6.00 Build 0)  -->
<svg version="1.1" id="Layer_1" xmlns="http://www.w3.org/2000/svg" xmlns:xlink="http://www.w3.org/1999/xlink" x="0px" y="0px"
	 viewBox="0 0 1000 1000" style="enable-background:new 0 0 1000 1000;" xml:space="preserve">
<style type="text/css">
	.st0{fill:#0ABAB4;}
	.st1{fill:#FFFFFF;}
	.st2{fill:none;stroke:#FFFFFF;stroke-width:2.7248;stroke-linecap:round;stroke-linejoin:round;stroke-miterlimit:10;}
	.st3{fill:none;stroke:#FFFFFF;stroke-width:1.8128;stroke-linecap:round;stroke-linejoin:round;stroke-miterlimit:10;}
	.st4{fill:none;stroke:#FFFFFF;stroke-width:2.0436;stroke-linecap:round;stroke-linejoin:round;stroke-miterlimit:10;}
	.st5{fill:none;}
</style>
<path class="st0" d="M190.8,339.5h-54.43v26.06h43.02v21.72h-43.02v45.49h-28.28V316.5h82.71V339.5z"/>
<g>
	<path class="st1" d="M251.68,346.5c4.38,0,8.58,0,12.77,0c0-7.39,0-14.64,0-22c-4.28,0-8.48,0-12.77,0
		C251.68,331.86,251.68,339.15,251.68,346.5z"/>
	<path class="st1" d="M342.63,324.51c0,7.42,0,14.7,0,21.97c4.31,0,8.51,0,12.72,0c0-7.38,0-14.63,0-21.97
		C351,324.51,346.8,324.51,342.63,324.51z"/>
	<path class="st1" d="M322.65,316.5c0,11.96,0,23.7,0,35.42c4.57,0,9.01,0,13.47,0c0-11.89,0-23.59,0-35.42
		C331.52,316.5,327.07,316.5,322.65,316.5z"/>
	<path class="st1" d="M270.92,316.5c0,11.96,0,23.7,0,35.42c4.57,0,9.01,0,13.47,0c0-11.89,0-23.59,0-35.42
		C279.78,316.5,275.34,316.5,270.92,316.5z"/>
</g>
<path class="st0" d="M240.66,316.5v116.27h-27.17V316.5H240.66z"/>
<path class="st0" d="M317.32,316.5v116.27h-27.6V316.5H317.32z"/>
<path class="st0" d="M183.38,471.34c-4.34-2.94-8.92-5.28-13.75-7.03c-4.83-1.75-9.52-3.04-14.06-3.88
	c-4.55-0.84-8.78-1.26-12.7-1.26c-9.52,0-17.11,1.89-22.77,5.67c-5.67,3.78-8.5,8.96-8.5,15.53c0,5.74,1.5,10.36,4.51,13.85
	c3.01,3.5,6.96,6.37,11.86,8.6c4.9,2.24,10.28,4.24,16.16,5.98c5.88,1.75,11.75,3.64,17.63,5.67c5.88,2.03,11.26,4.62,16.16,7.76
	c4.9,3.15,8.81,7.21,11.75,12.17c2.94,4.97,4.41,11.3,4.41,18.99c0,8.12-2.24,15.15-6.72,21.09c-4.48,5.95-10.7,10.57-18.68,13.85
	c-7.98,3.29-17.21,4.93-27.71,4.93c-7.14,0-14.14-0.94-20.99-2.83c-6.86-1.89-13.29-4.51-19.31-7.87
	c-6.02-3.36-11.33-7.21-15.95-11.54l7.56-13.64c4.62,4.34,9.65,8.05,15.11,11.12c5.46,3.08,11.09,5.46,16.9,7.14
	c5.8,1.68,11.44,2.52,16.9,2.52c10.63,0,19.03-2.17,25.19-6.51c6.16-4.33,9.24-10.21,9.24-17.63c0-5.74-1.47-10.42-4.41-14.06
	c-2.94-3.64-6.86-6.57-11.75-8.81c-4.9-2.24-10.28-4.2-16.16-5.88c-5.88-1.68-11.79-3.53-17.74-5.56
	c-5.95-2.03-11.37-4.54-16.27-7.56c-4.9-3.01-8.81-6.96-11.75-11.86c-2.94-4.9-4.41-11.12-4.41-18.68c0-7.69,2.1-14.34,6.3-19.94
	c4.2-5.6,10.14-9.97,17.84-13.12c7.69-3.15,16.58-4.72,26.66-4.72c8.53,0,16.9,1.26,25.08,3.78c8.19,2.52,15.35,5.74,21.51,9.66
	L183.38,471.34z"/>
<path class="st0" d="M334.92,476.48c-5.6-5.74-12.21-10.25-19.83-13.54c-7.63-3.28-15.5-4.93-23.61-4.93
	c-8.26,0-16.02,1.54-23.3,4.62c-7.28,3.08-13.64,7.38-19.1,12.91c-5.46,5.53-9.73,11.93-12.8,19.2c-3.08,7.28-4.62,15.11-4.62,23.51
	c0,8.26,1.54,16.02,4.62,23.3c3.08,7.28,7.35,13.64,12.8,19.1c5.46,5.46,11.82,9.76,19.1,12.91c7.27,3.15,15.04,4.72,23.3,4.72
	c8.11,0,15.91-1.57,23.4-4.72c7.48-3.15,14.17-7.52,20.04-13.12l10.28,10.49c-4.76,4.48-10.11,8.4-16.06,11.75
	c-5.95,3.36-12.14,5.95-18.58,7.77c-6.44,1.82-13.09,2.73-19.94,2.73c-10.64,0-20.54-1.92-29.7-5.77
	c-9.17-3.85-17.21-9.2-24.14-16.06c-6.93-6.85-12.35-14.83-16.27-23.93c-3.92-9.09-5.88-18.82-5.88-29.17
	c0-10.35,1.96-20.01,5.88-28.96c3.92-8.95,9.37-16.86,16.37-23.72c7-6.85,15.11-12.17,24.35-15.95s19.24-5.67,30.01-5.67
	c6.72,0,13.29,0.84,19.73,2.52c6.44,1.68,12.52,4.09,18.26,7.24c5.74,3.15,10.98,6.96,15.74,11.44L334.92,476.48z"/>
<path class="st0" d="M435.46,443.95c10.63,0,20.6,1.89,29.91,5.67c9.3,3.78,17.45,9.1,24.45,15.95c7,6.86,12.49,14.76,16.48,23.72
	c3.99,8.96,5.98,18.61,5.98,28.96c0,10.36-2,20.08-5.98,29.17c-3.99,9.1-9.48,17.07-16.48,23.93c-7,6.86-15.15,12.21-24.45,16.06
	c-9.31,3.85-19.28,5.77-29.91,5.77c-10.78,0-20.81-1.92-30.12-5.77c-9.31-3.85-17.46-9.2-24.45-16.06
	c-7-6.85-12.49-14.83-16.48-23.93c-3.99-9.09-5.98-18.82-5.98-29.17c0-10.35,1.99-20.05,5.98-29.07
	c3.99-9.02,9.48-16.93,16.48-23.72c7-6.78,15.14-12.07,24.45-15.85C414.64,445.83,424.68,443.95,435.46,443.95z M435.46,458.22
	c-8.26,0-15.99,1.54-23.19,4.62c-7.21,3.08-13.57,7.38-19.1,12.91c-5.53,5.53-9.86,11.93-13.01,19.21
	c-3.15,7.28-4.72,15.04-4.72,23.3c0,8.39,1.57,16.23,4.72,23.51c3.15,7.28,7.52,13.72,13.12,19.31c5.59,5.6,12,9.94,19.2,13.01
	c7.21,3.08,14.87,4.62,22.98,4.62c8.25,0,15.98-1.54,23.19-4.62c7.2-3.08,13.54-7.42,19-13.01c5.46-5.6,9.72-12.03,12.8-19.31
	c3.08-7.27,4.62-15.11,4.62-23.51c0-8.25-1.54-16.02-4.62-23.3c-3.08-7.27-7.35-13.68-12.8-19.21c-5.46-5.52-11.79-9.83-19-12.91
	C451.44,459.76,443.71,458.22,435.46,458.22z"/>
<g>
	<path class="st1" d="M677.24,520.55c0.82-0.2,1.01,0.08,1.21-0.12c1-1.02-3.55-8.67-10.59-13.94c-2.31-1.73-4.46-2.88-6.03-3.61
		c-1.91-4.89-2.95-5.36-10.91-8.9c-2.31-1.03-5.19-2.31-8.99-4.07c-10.37-4.82-18.38-11.38-24.82-16.65
		c-3.92-3.21-7.3-5.98-10.45-7.75c-4.7-2.64-8.97-3.02-12.45-1.26c-5.15,2.62-16.67,15.26-24.31,21.88
		c-8.48,7.34-14.69,8.34-24.88,14.16c-0.99,0.56-7.01,3.43-13.4,9.1c-3.32,2.95-7.99,7.09-6.98,9.6c0.68,1.7,3.38,1.15,12.89,2.35
		c1.74,0.22,11.33,1.51,18.67,3.92c7.92,2.61,8.45,3.79,14.4,5.44c9.4,2.61,17.07,1.18,22.9,0.34c18.75-2.69,73.95-7.21,80.09-8.72
		c0.2-0.05,0.33-0.09,0.33-0.09C675.58,521.75,675.97,520.86,677.24,520.55z M590.24,514.9c-1.4,0-2.53-1.13-2.53-2.53
		c0-1.4,1.13-2.53,2.53-2.53s2.53,1.13,2.53,2.53C592.77,513.77,591.64,514.9,590.24,514.9z M597.73,507.05
		c-1.24,0-2.25-1-2.25-2.25c0-1.24,1-2.25,2.25-2.25c1.24,0,2.25,1,2.25,2.25C599.98,506.04,598.98,507.05,597.73,507.05z
		 M602.81,519.39c-1.55,0-2.81-1.26-2.81-2.81c0-1.55,1.26-2.81,2.81-2.81c1.55,0,2.81,1.26,2.81,2.81
		C605.62,518.13,604.36,519.39,602.81,519.39z M617.9,497.14c-7.07-7.75-11.4-19.33-15.41-26.54c0.33,0.14,0.68,0.31,1.03,0.51
		c2.66,1.49,5.84,4.1,9.53,7.12c6.72,5.5,15.08,12.34,26.18,17.5c3.85,1.79,6.75,3.08,9.09,4.12c3.43,1.52,5.49,2.44,6.34,3.1
		c0.41,0.31,0.53,0.55,1.21,2.31c1.16,2.99,4.85,4.84,9.13,6.97c1.63,0.81,4.44,2.27,6.12,3.45c0.38,0.27,0.25,0.87-0.22,0.94
		c-1.67,0.24-4.61,0.42-9.34,0.12C650.63,516.04,632.06,512.67,617.9,497.14z M564.97,534.95c0,1.78-1.45,3.23-3.23,3.23
		c-1.78,0-3.23-1.45-3.23-3.23c0-1.78,1.45-3.23,3.23-3.23C563.52,531.71,564.97,533.16,564.97,534.95z M553.48,529.88
		c0,1.57-1.28,2.85-2.85,2.85s-2.85-1.28-2.85-2.85s1.28-2.85,2.85-2.85S553.48,528.31,553.48,529.88z M540.59,536.42
		c0,1.42-1.15,2.57-2.57,2.57s-2.57-1.15-2.57-2.57s1.15-2.57,2.57-2.57S540.59,535,540.59,536.42z M660.24,533.77
		c0,1.46-1.19,2.65-2.65,2.65c-1.46,0-2.65-1.19-2.65-2.65s1.19-2.65,2.65-2.65C659.06,531.12,660.24,532.31,660.24,533.77z"/>
	<path class="st0" d="M601.85,523.22c-28.08-0.3-53.98-2.14-77.34-4.8c1.51,41.71,36.21,74.95,77.34,74.81
		c40.29-0.14,74.33-32.27,76.72-73.07C655.35,522.26,629.65,523.52,601.85,523.22z"/>
</g>
<g>
	<g>
		<path class="st1" d="M614.33,577.55c-0.32-0.28-0.53-0.69-0.54-1.16c-0.02-0.88,0.67-1.62,1.56-1.64
			c8.32-0.22,17.33-4.93,24.1-12.6c6.77-7.66,10.33-17.19,9.52-25.48c-0.09-0.88,0.56-1.66,1.44-1.75c0.88-0.09,1.66,0.56,1.75,1.44
			c0.89,9.16-2.96,19.59-10.3,27.9c-7.34,8.32-17.22,13.43-26.42,13.68C615.01,577.97,614.62,577.81,614.33,577.55z"/>
	</g>
	<line class="st2" x1="615.08" y1="576.22" x2="612.99" y2="566.96"/>
	<line class="st2" x1="640.45" y1="536.32" x2="650" y2="536.22"/>
	<line class="st2" x1="631.49" y1="555.84" x2="640.09" y2="563.35"/>
	<polyline class="st3" points="624.14,566.73 625.4,570.31 626.27,572.8 	"/>
	<polyline class="st4" points="640.97,548.45 645.24,549.74 648.2,550.63 	"/>
</g>
<g>
	<circle class="st1" cx="653.52" cy="452.46" r="3.3"/>
	<circle class="st1" cx="652.55" cy="464.6" r="3.3"/>
	<circle class="st1" cx="664.98" cy="448.35" r="3.3"/>
	<circle class="st1" cx="642.06" cy="456.57" r="3.3"/>
	<circle class="st1" cx="664.01" cy="460.48" r="3.3"/>
	<circle class="st1" cx="663.04" cy="472.62" r="3.3"/>
</g>
<circle class="st1" cx="563.25" cy="474.01" r="1.25"/>
<circle class="st1" cx="543.87" cy="485.27" r="3.34"/>
<circle class="st1" cx="551.51" cy="474.18" r="2.49"/>
<path class="st0" d="M523.63,517.8"/>
<g>
	<path class="st0" d="M797.73,505.77L797.73,505.77c2.66-4.12,1.47-9.61-2.65-12.27l-68.76-44.31l-9.62,14.92l68.76,44.31
		C789.58,511.08,795.08,509.89,797.73,505.77z"/>
	<g>
		<path class="st5" d="M736.74,387.93c1.2-5.96,0.59-11.66-1.83-17.07c-2.42-5.41-6.21-9.78-11.38-13.11
			c-5.02-3.24-10.5-4.84-16.43-4.81c-5.93,0.03-11.21,1.71-15.85,5.02c-4.64,3.32-10.22,10.05-16.76,20.19l-17.1,26.54l50.93,32.82
			L725,412.29C731.62,402.02,735.54,393.9,736.74,387.93z"/>
		<path class="st0" d="M729.92,436.26c12.01-18.64,19.4-31.89,22.15-39.75c3.76-10.77,4.1-20.9,1.03-30.39
			c-3.08-9.49-9.62-17.46-19.62-23.91c-9.93-6.4-19.94-9-30.01-7.78c-10.07,1.21-18.93,5.43-26.56,12.64
			c-5.35,5.02-13.56,16.11-24.61,33.25l-19.27,29.9l80.12,51.63l9.87-14.87L729.92,436.26z M657.39,404.69l17.1-26.54
			c6.53-10.14,12.12-16.87,16.76-20.19c4.64-3.32,9.92-4.99,15.85-5.02c5.93-0.03,11.41,1.57,16.43,4.81
			c5.16,3.33,8.96,7.7,11.38,13.11c2.42,5.41,3.03,11.1,1.83,17.07c-1.2,5.97-5.11,14.09-11.73,24.36l-16.68,25.22L657.39,404.69z"
			/>
		<path class="st0" d="M790.25,490.31l-54.38-35.04c-4.13-2.66-9.63-1.48-12.31,2.63v0c-2.7,4.14-1.51,9.69,2.64,12.37l54.38,35.04
			c4.14,2.67,9.67,1.48,12.34-2.67C795.59,498.5,794.39,492.98,790.25,490.31z"/>
	</g>
</g>
</svg>
