<svg xmlns="http://www.w3.org/2000/svg" width="20" height="20" viewBox="0 0 20 20">
  <defs>
    <style>
      .cls-1 {
        fill: #fff;
        fill-rule: evenodd;
      }
    </style>
  </defs>
  <g id="Iconly_Light-Outline_Heart" transform="translate(-2 -3)">
    <g id="Heart" transform="translate(2 3)">
      <path id="Combined-Shape" class="cls-1" d="M10,1.066A6.457,6.457,0,0,1,15.52.333c3.965,1.342,5.2,5.881,4.1,9.492-1.7,5.671-8.954,9.9-9.262,10.079a.7.7,0,0,1-.7,0c-.306-.175-7.509-4.343-9.264-10.08a0,0,0,0,1,0,0C-.716,6.213.511,1.674,4.472.333A6.306,6.306,0,0,1,10,1.066ZM4.921,1.8C1.716,2.883.911,6.5,1.782,9.356,3.151,13.83,8.562,17.447,10,18.343c1.443-.9,6.893-4.562,8.219-8.982.87-2.857.063-6.477-3.148-7.563a4.968,4.968,0,0,0-4.622.812.705.705,0,0,1-.889.006A4.917,4.917,0,0,0,4.921,1.8Zm9.212,2.037a3.586,3.586,0,0,1,2.379,3.154.758.758,0,0,1-.671.829.6.6,0,0,1-.061,0,.748.748,0,0,1-.73-.707A2.059,2.059,0,0,0,13.684,5.3a.778.778,0,0,1-.473-.968A.729.729,0,0,1,14.134,3.835Z" transform="translate(0 0)"/>
    </g>
  </g>
</svg>
