<svg xmlns="http://www.w3.org/2000/svg" width="20" height="20" viewBox="0 0 20 20">

  <g id="Iconly_Bold_Heart" transform="translate(-19 -3.5)">
    <g id="Heart" transform="translate(2 2.501)">
      <path id="Path_1097" class="cls-1" d="M6.28,0A5.964,5.964,0,0,1,8.111.348H8.17A.349.349,0,0,1,8.26.41a3.43,3.43,0,0,1,.63.275h0l.38.179c.15.084.33.241.43.305a3.021,3.021,0,0,1,.3.2A6.063,6.063,0,0,1,13.85,0a5.575,5.575,0,0,1,1.86.305c3.691,1.263,5.021,5.526,3.91,9.252a13.518,13.518,0,0,1-3.009,5.062,38.81,38.81,0,0,1-6.331,5.221h0L10.03,20l-.26-.169A38.427,38.427,0,0,1,3.4,14.609,13.733,13.733,0,0,1,.39,9.558C-.74,5.832.59,1.569,4.321.283A4.331,4.331,0,0,1,5.21.063h.12A5.514,5.514,0,0,1,6.17,0h.11Zm8.91,3.326a.792.792,0,0,0-1.01.526.873.873,0,0,0,.5,1.083,1.763,1.763,0,0,1,1.07,1.653h0v.033a.937.937,0,0,0,.19.653.825.825,0,0,0,.57.305.843.843,0,0,0,.79-.8h0V6.653A3.479,3.479,0,0,0,15.19,3.326Z" transform="translate(17 1)"/>
    </g>
  </g>
</svg>
