<svg xmlns="http://www.w3.org/2000/svg" width="19" height="20" viewBox="0 0 19 20">
  <defs>
    <style>
      .cls-1 {
        fill: #fff;
        fill-rule: evenodd;
      }
    </style>
  </defs>
  <g id="Iconly_Light-Outline_Home" transform="translate(-2 -1)">
    <g id="Home" transform="translate(2 1)">
      <path id="Fill-1" class="cls-1" d="M10.859,13.291a2.023,2.023,0,0,1,2.024,2.017v2.861a.438.438,0,0,0,.436.436h1.767a2.515,2.515,0,0,0,2.524-2.5V7.992a1.561,1.561,0,0,0-.618-1.217l-6.111-4.89a2.233,2.233,0,0,0-2.791,0L2.021,6.773A1.56,1.56,0,0,0,1.39,8.008v8.1a2.515,2.515,0,0,0,2.524,2.5H5.7a.451.451,0,0,0,.455-.445A.753.753,0,0,1,6.17,18V15.308a2.026,2.026,0,0,1,2.01-2.017ZM15.086,20H13.3a1.827,1.827,0,0,1-1.809-1.831V15.308a.629.629,0,0,0-.634-.622H8.185a.629.629,0,0,0-.625.622V18.16a.677.677,0,0,1-.029.2A1.846,1.846,0,0,1,5.7,20H3.914A3.909,3.909,0,0,1,0,16.105V8A2.937,2.937,0,0,1,1.167,5.673L7.224.8a3.616,3.616,0,0,1,4.523,0l6.1,4.883A2.94,2.94,0,0,1,19,7.982v8.124A3.909,3.909,0,0,1,15.086,20Z" transform="translate(0 0)"/>
    </g>
  </g>
</svg>
