<svg xmlns="http://www.w3.org/2000/svg" width="30" height="30" viewBox="0 0 30 30">
  <defs>
    <style>
      .cls-1 {
        fill: #0dbab4;
      }
    </style>
  </defs>
  <g id="Iconly_Bold_Plus" transform="translate(-2 -2)">
    <g id="Plus" transform="translate(2 2)">
      <path id="Path_1101" class="cls-1" d="M21.99,0C27.09,0,30,2.88,30,8h0v14.01c0,5.085-2.9,7.995-8,7.995H8c-5.115,0-8-2.91-8-7.995H0V8C0,2.88,2.88,0,8,0H21.99ZM14.985,8.265A1.242,1.242,0,0,0,13.74,9.51h0v4.23H9.5A1.229,1.229,0,0,0,8.25,14.985,1.265,1.265,0,0,0,9.5,16.245H13.74V20.49a1.245,1.245,0,0,0,2.49,0h0V16.245h4.26a1.265,1.265,0,0,0,1.245-1.26A1.242,1.242,0,0,0,20.49,13.74H16.23V9.51A1.242,1.242,0,0,0,14.985,8.265Z" transform="translate(0 0)"/>
    </g>
  </g>
</svg>
