<svg xmlns="http://www.w3.org/2000/svg" width="30" height="30" viewBox="0 0 30 30">
  <defs>
    <style>
      .cls-1 {
        fill: #fff;
        fill-rule: evenodd;
      }
    </style>
  </defs>
  <g id="Iconly_Light-Outline_Plus" transform="translate(-1 -1)">
    <g id="Plus" transform="translate(1 1)">
      <path id="Combined-Shape" class="cls-1" d="M21.539,0C26.6,0,30,3.553,30,8.84V21.16C30,26.447,26.6,30,21.539,30H8.461C3.4,30,0,26.447,0,21.16V8.84C0,3.553,3.4,0,8.461,0Zm0,2.093H8.461c-3.868,0-6.368,2.647-6.368,6.747V21.16c0,4.1,2.5,6.747,6.368,6.747H21.539c3.869,0,6.368-2.647,6.368-6.747V8.84C27.907,4.74,25.408,2.093,21.539,2.093ZM15,8.829a1.047,1.047,0,0,1,1.047,1.047V13.94h4.07a1.047,1.047,0,1,1,0,2.093h-4.07V20.1a1.047,1.047,0,1,1-2.093,0V16.033H9.884a1.047,1.047,0,0,1,0-2.093h4.07V9.875A1.047,1.047,0,0,1,15,8.829Z"/>
    </g>
  </g>
</svg>
