<svg xmlns="http://www.w3.org/2000/svg" width="16" height="20" viewBox="0 0 16 20">
  <g id="Iconly_Light-Outline_Profile" transform="translate(-4 -2)">
    <g id="Profile" transform="translate(4 2)">
      <path id="Combined-Shape" class="cls-1" d="M16,16.3c0,3.317-4.566,3.7-8,3.7H7.755C5.568,19.994,0,19.857,0,16.279c0-3.25,4.382-3.684,7.789-3.7h.457C10.434,12.583,16,12.721,16,16.3ZM8,14.087c-4.3,0-6.486.737-6.486,2.191S3.7,18.49,8,18.49s6.484-.737,6.484-2.191S12.3,14.087,8,14.087ZM8,0A5.344,5.344,0,1,1,8,10.688H7.969A5.344,5.344,0,1,1,8,0ZM8,1.437a3.907,3.907,0,1,0-.029,7.815L8,9.97V9.252A3.907,3.907,0,1,0,8,1.437Z"/>
    </g>
  </g>
</svg>
