<svg xmlns="http://www.w3.org/2000/svg" width="22.999" height="19" viewBox="0 0 22.999 19">
  <g id="noun-create-mail-2111084" transform="translate(-0.529 -1.128)">
    <g id="Group_1515" transform="translate(0.529 1.128)">
      <path id="Path_1110" d="M20.7,1.128,20.13,1.7,13.165,8.661l-.63,3.458h-3.2v1.6h3.2v-1.6L16,11.492l7.531-7.533ZM7.4,2.547,6.367,3.582,5.334,4.615V15.325H.532v1.6h0a3.216,3.216,0,0,0,3.2,3.2h12.8a3.216,3.216,0,0,0,3.2-3.2v-8.8l-1.6,1.6v7.2a1.6,1.6,0,1,1-3.2,0v-1.6h-8V5.75h1.6v-1.6h8.8l1.6-1.6H7.4Zm13.3.85.567.561-6.049,6.049-.692.123.125-.691ZM9.334,5.719v1.6H13.7l1.6-1.6Zm0,3.2v1.6h2.887l.314-1.6Zm-7.2,8h11.2a3.158,3.158,0,0,0,.449,1.6H3.732A1.591,1.591,0,0,1,2.129,16.924Z" transform="translate(-0.529 -1.128)" fill="#e4e4e4"/>
    </g>
  </g>
</svg>
