<svg xmlns="http://www.w3.org/2000/svg" width="15" height="14.249" viewBox="0 0 15 14.249">
  <defs>
    <style>
      .cls-1 {
        fill: #0dbab4;
      }
    </style>
  </defs>
  <g id="Iconly_Bold_Star" transform="translate(-2 -2.5)">
    <g id="Star" transform="translate(2 2.5)">
      <path id="Path_1102" class="cls-1" d="M11.938,8.864a.825.825,0,0,0-.239.727l.667,3.69a.81.81,0,0,1-.337.81.826.826,0,0,1-.877.06L7.829,12.418a.848.848,0,0,0-.375-.1h-.2a.609.609,0,0,0-.2.067L3.726,14.128a.876.876,0,0,1-.532.082.834.834,0,0,1-.667-.953l.667-3.69a.839.839,0,0,0-.239-.734L.247,6.209a.81.81,0,0,1-.2-.847A.842.842,0,0,1,.712,4.8l3.727-.541A.834.834,0,0,0,5.1,3.8L6.741.435a.78.78,0,0,1,.15-.2L6.958.18a.5.5,0,0,1,.121-.1l.082-.03L7.288,0H7.6a.839.839,0,0,1,.66.45L9.928,3.8a.833.833,0,0,0,.622.457l3.727.541a.85.85,0,0,1,.682.562.815.815,0,0,1-.217.847Z" transform="translate(0 0)"/>
    </g>
  </g>
</svg>
